<svg width="100" height="51" viewBox="0 0 100 51" fill="none" xmlns="http://www.w3.org/2000/svg">
<path d="M63.7154 51L66.4574 46.2476L91.7551 46.2476L89.0094 41.4952L78.034 41.4952L70.8766 29.0952C66.6603 36.3981 62.444 43.701 58.2277 51L41.7608 51C37.5446 43.6971 33.3283 36.3942 29.112 29.0952L21.9546 41.4952L10.9792 41.4952L8.23345 46.2476L33.5312 46.2476L36.2731 51L0 51L8.23345 36.7389L19.2126 36.7389L29.1158 19.5865L44.5066 46.2476L47.2523 41.4952L29.1158 10.0817L16.4707 31.9865L10.983 31.9865L29.1196 0.572974L50.002 36.7389L70.8842 0.572982L89.0171 31.9865L83.5293 31.9865L70.8842 10.0817L52.7477 41.4952L55.4934 46.2476L70.8842 19.5865L80.7874 36.7389L91.7666 36.7389L100 51L63.7269 51L63.7154 51Z" fill="#F7921E"/>
</svg>
